<?xml version="1.0" encoding="utf-8"?><svg width="203" height="209" viewBox="0 0 203 209" xmlns="http://www.w3.org/2000/svg" xmlns:xlink="http://www.w3.org/1999/xlink"><svg id="icon-arrow1" viewBox="-5 -5 28 23.1" width="28" height="23.1"><style>.ast0{fill:#fff}</style><title>arrow1</title><path class="ast0" d="M18 6.6c0-.2-.1-.3-.2-.5L12.3.2c-.3-.3-.7-.3-1 0-.3.3-.3.7 0 1l4.5 4.7H.8c-.5 0-.8.3-.8.7 0 .4.3.7.7.7h15L11.3 12c-.3.3-.3.7 0 1 .3.3.7.3 1 0l5.5-5.9c.2-.1.2-.3.2-.5z"/></svg><svg id="icon-arrow2" viewBox="-5 -5 20.1 29.1" width="20.1" height="29.1" x="28" y="24"><style>.bst0{fill:#fff}</style><title>arrow2</title><path class="bst0" d="M10 9.2l-9-9C.8-.1.4-.1.2.1S-.1.7.1.9l.1.1 8.6 8.6-8.6 8.6c-.2.2-.3.6-.1.8.1.1.3.2.5.2s.3-.1.4-.2l9-9c.2-.2.2-.5 0-.8z"/></svg><svg id="icon-close" data-name="Calque 1" viewBox="-5 -5 26.9 26.9" width="26.9" height="26.9" x="49" y="54"><defs><style>.ccls-1{fill:#010101}</style></defs><title>close</title><path class="ccls-1" d="M18.75 2.56L12 9.32a.67.67 0 0 1-1 0L4.25 2.56a.67.67 0 0 0-1 0 .67.67 0 0 0 0 1L10 10.29a.67.67 0 0 1 0 1L3.26 18a.67.67 0 0 0 0 1 .67.67 0 0 0 1 0L11 12.25a.67.67 0 0 1 1 0L18.75 19a.67.67 0 0 0 1 0 .67.67 0 0 0 0-1L13 11.28a.67.67 0 0 1 0-1l6.76-6.76a.67.67 0 0 0 0-1 .72.72 0 0 0-1.01.04z" transform="translate(-3.05 -2.35)"/></svg><svg id="icon-grid" viewBox="-5 -5 34 34" width="34" height="34" x="76" y="81"><style>.dst0{fill:#fff}</style><path class="dst0" d="M6 6H0V0h6v6zm9-6H9v6h6V0zm9 0h-6v6h6V0zM6 9H0v6h6V9zm9 0H9v6h6V9zm9 0h-6v6h6V9zM6 18H0v6h6v-6zm9 0H9v6h6v-6zm9 0h-6v6h6v-6z"/></svg><svg width="83" height="84" viewBox="-5 -5 83 84" id="logo_ux-republic" x="110" y="115"><defs><style>.ecls-1{fill:#fff;fill-rule:evenodd}</style></defs><path id="eForme_28_copie_2" data-name="Forme 28 copie 2" class="ecls-1" d="M1482 1364v74h6.73v-10.09H1555V1364h-73zm22.47 49.62l-1.46-2.82h-1.69v2.82h-.46v-6.12h2.33a1.592 1.592 0 0 1 1.76 1.64 1.571 1.571 0 0 1-1.42 1.65l1.49 2.83h-.55zm5.59-5.71h-3.25v2.42h2.77v.41h-2.77v2.47h3.25v.41h-3.72v-6.12h3.72v.41zm3.51 3.11h-1.78v2.6h-.47v-6.12h2.25a1.762 1.762 0 1 1 0 3.52zm7.13.61a2.106 2.106 0 0 1-4.21 0v-4.13h.47v4.08a1.636 1.636 0 1 0 3.27 0v-4.08h.47v4.13zm3.96 1.99h-2.33v-6.12h2.26a1.6 1.6 0 0 1 1.77 1.6 1.389 1.389 0 0 1-.95 1.37 1.5 1.5 0 0 1 1.04 1.48 1.59 1.59 0 0 1-1.79 1.67zm7 0h-3.72v-6.12h.46v5.71h3.26v.41zm1.49 0h-.46v-6.12h.46v6.12zm2.42-.83a1.64 1.64 0 0 0 1.17.47 1.62 1.62 0 0 0 1.62-1.38h.46a2.045 2.045 0 0 1-2.08 1.79 2.178 2.178 0 0 1-1.54-.62c-.56-.56-.56-1.11-.56-2.49s0-1.93.56-2.49a2.178 2.178 0 0 1 1.54-.62 2.031 2.031 0 0 1 2.08 1.78h-.47a1.608 1.608 0 0 0-1.61-1.37 1.64 1.64 0 0 0-1.17.47c-.44.44-.47.92-.47 2.23s.03 1.79.47 2.23zm4.24-26.72h-3.5l-5.04 6.98 5.56 7.08h2.98v3.62h-11.39v-3.62h2.17l-3.21-4.18-3.04 4.18h2.2v3.62h-9.91v-3.62h3.13l5.16-7.3-5.16-6.76h-4.34v10.65a16.16 16.16 0 0 1-.2 3.15 4.546 4.546 0 0 1-1.04 1.95 5.835 5.835 0 0 1-2.38 1.58 10.026 10.026 0 0 1-3.6.6 10.6 10.6 0 0 1-4-.67 5.413 5.413 0 0 1-2.47-1.76 5.884 5.884 0 0 1-1.07-2.18 20.031 20.031 0 0 1-.25-3.69v-9.63h-2.42v-3.61h10.06v3.61h-2.01v9.63a18.575 18.575 0 0 0 .13 2.77 2.257 2.257 0 0 0 .84 1.39 2.685 2.685 0 0 0 1.74.55 2.972 2.972 0 0 0 1.8-.52 2.3 2.3 0 0 0 .92-1.29 16.088 16.088 0 0 0 .2-3.18v-9.35h-2.01v-3.61h18.36v3.61h-2.1l2.98 3.74 2.7-3.74h-1.97v-3.61h10.18v3.61zm-15.25 24.68h-1.81v2.51h1.81a1.262 1.262 0 1 0 0-2.51zm1.29-1.6a1.177 1.177 0 0 0-1.36-1.19h-1.74v2.37h1.74a1.175 1.175 0 0 0 1.36-1.18zm-21.41.05a1.183 1.183 0 0 0-1.35-1.24h-1.81v2.48h1.81a1.183 1.183 0 0 0 1.35-1.24zm9.03-1.24h-1.73v2.7h1.73a1.353 1.353 0 1 0 0-2.7z" transform="translate(-1482 -1364)"/></svg><svg viewBox="-5 -5 10 10" width="10" height="10" id="sprite" x="193" y="199"><defs><style>.cls-1{fill:#1e1e22;fill-rule:evenodd}</style></defs><symbol viewBox="0 0 18 18" id="farrow-next"><path id="farrow-next-arrow.svg" d="M12.6 9L4 17.3l.7.7 8.5-8.3.8-.7-.7-.7L4.7 0 4 .7 12.6 9z"/></symbol><symbol viewBox="0 0 18 18" id="farrow-prev"><path id="farrow-prev-arrow.svg" d="M14 .7l-.7-.7-8.6 8.3L4 9l.7.7 8.5 8.3.7-.7L5.4 9 14 .7z"/></symbol></svg></svg>