<svg id="Calque_1" data-name="Calque 1" xmlns="http://www.w3.org/2000/svg" viewBox="0 0 16.9 16.9"><defs><style>.cls-1{fill:#010101;}</style></defs><title>close</title><path class="cls-1" d="M18.75,2.56L12,9.32a0.67,0.67,0,0,1-1,0L4.25,2.56a0.67,0.67,0,0,0-1,0h0a0.67,0.67,0,0,0,0,1L10,10.29a0.67,0.67,0,0,1,0,1L3.26,18a0.67,0.67,0,0,0,0,1h0a0.67,0.67,0,0,0,1,0L11,12.25a0.67,0.67,0,0,1,1,0L18.75,19a0.67,0.67,0,0,0,1,0h0a0.67,0.67,0,0,0,0-1L13,11.28a0.67,0.67,0,0,1,0-1l6.76-6.76a0.67,0.67,0,0,0,0-1h0A0.72,0.72,0,0,0,18.75,2.56Z" transform="translate(-3.05 -2.35)"/></svg>