<?xml version="1.0" encoding="utf-8"?>
<!-- Generator: Adobe Illustrator 21.0.0, SVG Export Plug-In . SVG Version: 6.00 Build 0)  -->
<svg version="1.1" id="Calque_1" xmlns="http://www.w3.org/2000/svg" xmlns:xlink="http://www.w3.org/1999/xlink" x="0px" y="0px"
	 viewBox="0 0 18 13.1" style="enable-background:new 0 0 18 13.1;" xml:space="preserve">
<style type="text/css">
	.st0{fill:#FFFFFF;}
</style>
<title>arrow1</title>
<path class="st0" d="M18,6.6c0-0.2-0.1-0.3-0.2-0.5l-5.5-5.9c-0.3-0.3-0.7-0.3-1,0c0,0,0,0,0,0c-0.3,0.3-0.3,0.7,0,1l4.5,4.7h-15
	C0.3,5.9,0,6.2,0,6.6C0,7,0.3,7.3,0.7,7.3h15L11.3,12c-0.3,0.3-0.3,0.7,0,1c0.3,0.3,0.7,0.3,1,0c0,0,0,0,0,0l5.5-5.9
	C18,7,18,6.8,18,6.6L18,6.6z"/>
</svg>
