<svg xmlns="http://www.w3.org/2000/svg" width="73" height="74" viewBox="0 0 73 74">
  <metadata><?xpacket begin="﻿" id="W5M0MpCehiHzreSzNTczkc9d"?>
<x:xmpmeta xmlns:x="adobe:ns:meta/" x:xmptk="Adobe XMP Core 5.6-c138 79.159824, 2016/09/14-01:09:01        ">
   <rdf:RDF xmlns:rdf="http://www.w3.org/1999/02/22-rdf-syntax-ns#">
      <rdf:Description rdf:about=""/>
   </rdf:RDF>
</x:xmpmeta>
                                                                                                    
                                                                                                    
                                                                                                    
                                                                                                    
                                                                                                    
                                                                                                    
                                                                                                    
                                                                                                    
                                                                                                    
                                                                                                    
                                                                                                    
                                                                                                    
                                                                                                    
                                                                                                    
                                                                                                    
                                                                                                    
                                                                                                    
                                                                                                    
                                                                                                    
                                                                                                    
                           
<?xpacket end="w"?></metadata>
<defs>
    <style>
      .cls-1 {
        fill: #fff;
        fill-rule: evenodd;
      }
    </style>
  </defs>
  <path id="Forme_28_copie_2" data-name="Forme 28 copie 2" class="cls-1" d="M1482,1364v74h6.73v-10.09H1555V1364h-73Zm22.47,49.62-1.46-2.82h-1.69v2.82h-0.46v-6.12h2.33a1.592,1.592,0,0,1,1.76,1.64,1.571,1.571,0,0,1-1.42,1.65l1.49,2.83h-0.55Zm5.59-5.71h-3.25v2.42h2.77v0.41h-2.77v2.47h3.25v0.41h-3.72v-6.12h3.72v0.41Zm3.51,3.11h-1.78v2.6h-0.47v-6.12h2.25A1.762,1.762,0,1,1,1513.57,1411.02Zm7.13,0.61a2.106,2.106,0,0,1-4.21,0v-4.13h0.47v4.08a1.636,1.636,0,1,0,3.27,0v-4.08h0.47v4.13Zm3.96,1.99h-2.33v-6.12h2.26a1.6,1.6,0,0,1,1.77,1.6,1.389,1.389,0,0,1-.95,1.37,1.5,1.5,0,0,1,1.04,1.48A1.59,1.59,0,0,1,1524.66,1413.62Zm7,0h-3.72v-6.12h0.46v5.71h3.26v0.41Zm1.49,0h-0.46v-6.12h0.46v6.12Zm2.42-.83a1.64,1.64,0,0,0,1.17.47,1.62,1.62,0,0,0,1.62-1.38h0.46a2.045,2.045,0,0,1-2.08,1.79,2.178,2.178,0,0,1-1.54-.62c-0.56-.56-0.56-1.11-0.56-2.49s0-1.93.56-2.49a2.178,2.178,0,0,1,1.54-.62,2.031,2.031,0,0,1,2.08,1.78h-0.47a1.608,1.608,0,0,0-1.61-1.37,1.64,1.64,0,0,0-1.17.47c-0.44.44-.47,0.92-0.47,2.23S1535.13,1412.35,1535.57,1412.79Zm4.24-26.72h-3.5l-5.04,6.98,5.56,7.08h2.98v3.62h-11.39v-3.62h2.17l-3.21-4.18-3.04,4.18h2.2v3.62h-9.91v-3.62h3.13l5.16-7.3-5.16-6.76h-4.34v10.65a16.16,16.16,0,0,1-.2,3.15,4.546,4.546,0,0,1-1.04,1.95,5.835,5.835,0,0,1-2.38,1.58,10.026,10.026,0,0,1-3.6.6,10.6,10.6,0,0,1-4-.67,5.413,5.413,0,0,1-2.47-1.76,5.884,5.884,0,0,1-1.07-2.18,20.031,20.031,0,0,1-.25-3.69v-9.63h-2.42v-3.61h10.06v3.61h-2.01v9.63a18.575,18.575,0,0,0,.13,2.77,2.257,2.257,0,0,0,.84,1.39,2.685,2.685,0,0,0,1.74.55,2.972,2.972,0,0,0,1.8-.52,2.3,2.3,0,0,0,.92-1.29,16.088,16.088,0,0,0,.2-3.18v-9.35h-2.01v-3.61h18.36v3.61h-2.1l2.98,3.74,2.7-3.74h-1.97v-3.61h10.18v3.61Zm-15.25,24.68h-1.81v2.51h1.81A1.262,1.262,0,1,0,1524.56,1410.75Zm1.29-1.6a1.177,1.177,0,0,0-1.36-1.19h-1.74v2.37h1.74A1.175,1.175,0,0,0,1525.85,1409.15Zm-21.41.05a1.183,1.183,0,0,0-1.35-1.24h-1.81v2.48h1.81A1.183,1.183,0,0,0,1504.44,1409.2Zm9.03-1.24h-1.73v2.7h1.73A1.353,1.353,0,1,0,1513.47,1407.96Z" transform="translate(-1482 -1364)"/>
</svg>
